ply
format ascii 1.0
comment Created by Open3D
element vertex 363
property double x
property double y
property double z
property double nx
property double ny
property double nz
property uchar red
property uchar green
property uchar blue
element face 622
property list uchar uint vertex_indices
end_header
1.47562 3.4858 0.809294 0.24665 -0.240293 0.938841 211 229 239
1.48203 3.4858 0.807045 -0.103583 -0.261313 0.95968 211 229 239
1.48843 3.48351 0.809833 0.229366 -0.199792 0.952615 211 229 239
1.48748 3.4858 0.809833 -0.443409 -0.221084 0.868625 211 229 239
1.48843 3.4858 0.810313 -0.00255718 -0.215465 0.976508 211 229 239
1.49483 3.48275 0.809833 0 0 0 211 229 239
1.48979 3.4858 0.809833 0.321744 -0.240759 0.915705 211 229 239
1.49483 3.4858 0.808064 0.0570853 -0.259989 0.963923 211 229 239
1.49886 3.4858 0.809833 -0.397828 -0.255379 0.8812 211 229 239
1.50123 3.4858 0.810954 -0.0325624 -0.256302 0.966048 211 229 239
1.50763 3.48432 0.809833 -0.383656 0.443175 0.810188 211 229 238
1.50495 3.4858 0.809833 0.281979 -0.211892 0.935729 211 229 239
1.50763 3.4858 0.809025 -0.0649742 -0.118129 0.99087 211 229 239
1.50934 3.4858 0.809833 -0.423758 -0.133707 0.895852 211 229 239
1.51403 3.4858 0.812052 0.0358176 -0.083666 0.99585 211 229 239
1.52044 3.4794 0.812875 0.0729949 0.233344 0.969651 210 228 238
1.52044 3.48536 0.809833 0.274937 0.435317 0.857268 211 229 239
1.51989 3.4858 0.809833 0.344779 -0.215702 0.913564 211 229 239
1.52044 3.4858 0.809609 0 1.11621e-17 1 211 229 239
1.52684 3.4794 0.810783 0.0069323 -0.0751795 0.997146 209 227 237
1.52096 3.4858 0.809833 -0.392441 0.363156 0.845049 211 229 239
1.52684 3.4858 0.812582 -0.0481506 -0.147629 0.98787 209 227 237
1.53324 3.4794 0.813737 -0.117953 0.151087 0.981458 209 227 236
1.53324 3.4858 0.811586 -0.181029 -0.0160026 0.983348 209 227 237
1.53964 3.4794 0.811666 -0.108346 -0.204479 0.972856 209 227 237
1.53964 3.4858 0.813011 -0.20461 -0.0676392 0.976504 209 227 237
1.54517 3.4858 0.816234 -0.508725 -0.123412 0.852038 209 227 237
1.54604 3.48679 0.816234 -0.339764 0.449119 0.826349 209 227 237
1.54604 3.4922 0.813273 -0.0509576 -0.00718161 0.998675 209 227 237
1.53964 3.4922 0.815276 -0.123265 -0.263048 0.956876 209 227 237
1.54604 3.4858 0.816779 0 -1.34875e-17 1 209 227 237
1.54205 3.4986 0.816234 0.355032 0.219694 0.908673 209 227 237
1.53964 3.4956 0.816234 0.164014 -0.282315 0.945197 209 227 237
1.54604 3.4986 0.814722 -0.00286648 -0.0382099 0.999266 209 227 237
1.53964 3.4986 0.817224 -1.81415e-17 0 1 209 227 237
1.53964 3.50054 0.816234 -0.207579 0.454444 0.866251 209 227 237
1.54604 3.50501 0.815716 0.0258253 -0.183149 0.982746 209 227 237
1.53964 3.50501 0.81396 0.0198421 -0.00163551 0.999802 210 228 238
1.54604 3.50747 0.816234 0.160364 -0.218201 0.962638 209 227 237
1.54324 3.51141 0.816234 -0.307153 0.131021 0.942598 209 227 237
1.53964 3.51141 0.815088 0.0378823 -0.0585184 0.997567 210 228 238
1.54604 3.51141 0.8172 0 0 1 209 227 237
1.54604 3.5133 0.816234 0 0.454237 0.890881 209 227 237
1.54044 3.51781 0.816234 0.379617 -0.180089 0.907446 210 228 238
1.53964 3.51647 0.816234 0.291186 -0.213315 0.932581 210 228 238
1.54604 3.51781 0.813936 0.101088 0.0600373 0.993064 210 228 238
1.53964 3.51781 0.816516 -0.236159 -0.193269 0.9523 210 228 238
1.54348 3.52421 0.816234 0.396566 -0.190479 0.898027 210 228 238
1.54604 3.52421 0.815066 0.389565 -0.1777 0.903693 210 228 238
1.53964 3.52421 0.817863 -0.178409 -0.189962 0.965445 210 228 239
1.54604 3.52937 0.816234 0.406505 -0.201986 0.891042 210 228 238
1.54748 3.4858 0.816234 0.337745 0.299884 0.892187 209 227 237
1.55245 3.4858 0.814355 -0.0667499 -0.147626 0.986788 209 227 237
1.55245 3.4922 0.815803 -0.293912 -0.16828 0.940903 209 227 237
1.55245 3.4941 0.816234 0.202372 -0.210518 0.956414 209 227 237
1.54986 3.4986 0.816234 -0.360096 -0.0499982 0.931574 209 227 237
1.55245 3.4986 0.817179 0 0 1 209 227 237
1.55245 3.50023 0.816234 0.0257944 0.527233 0.849329 209 227 237
1.55245 3.50501 0.813251 -0.0595699 -0.0145458 0.998118 209 227 237
1.5484 3.51141 0.816234 0.356154 0.202754 0.912165 209 227 237
1.55245 3.51141 0.814701 0.0829726 -0.106876 0.990804 209 227 237
1.55245 3.51781 0.816156 -0.320245 -0.209945 0.923778 209 227 237
1.5572 3.4858 0.816234 -0.361905 -0.203326 0.909771 208 226 236
1.5538 3.4922 0.816234 -0.324795 0.0543638 0.944221 209 227 237
1.55885 3.4858 0.816887 -0.164168 -0.166124 0.972343 208 226 236
1.55885 3.4922 0.817841 0.0434888 0.0440071 0.998084 208 226 236
1.55885 3.49513 0.816234 0.0625829 0.479508 0.875303 208 226 236
1.55468 3.4986 0.816234 0.406173 9.86329e-18 0.913796 209 227 237
1.55885 3.4986 0.814334 -0.00170039 0.123442 0.99235 209 227 237
1.55885 3.50486 0.816234 -0.411403 -0.26449 0.872235 209 227 237
1.55876 3.50501 0.816234 -0.415615 -0.233374 0.879091 209 227 237
1.55885 3.50501 0.816275 -0.388547 -0.249796 0.886924 209 227 237
1.55569 3.51141 0.816234 -0.418862 -0.200648 0.885604 209 227 237
1.56027 3.4858 0.816234 0.384712 -0.176457 0.906013 208 226 236
1.56309 3.4922 0.816234 0.353784 0.0540772 0.933762 208 226 236
1.56525 3.4858 0.813966 -0.0138098 -0.017596 0.99975 208 226 235
1.56525 3.4922 0.815415 0.0873462 -0.0413003 0.995322 208 226 236
1.56525 3.49582 0.816234 -0.370364 -0.212228 0.904317 208 226 236
1.56365 3.4986 0.816234 -0.362551 -0.207686 0.908528 208 226 236
1.56525 3.4986 0.816918 -0.383897 -0.219983 0.896789 208 226 236
1.57098 3.4858 0.816234 -0.360436 -0.213104 0.908115 209 226 234
1.56732 3.4922 0.816234 -0.35995 -0.206075 0.909928 208 226 235
1.54604 3.4794 0.815163 -0.126653 -0.238215 0.962919 209 227 237
1.54604 3.48339 0.816234 0.243023 -0.237323 0.940541 209 227 237
1.55245 3.4794 0.812623 -0.015618 -0.261122 0.965179 208 226 236
1.55885 3.4794 0.81537 -0.226359 -0.135057 0.964635 208 226 236
1.55885 3.48292 0.816234 0.264289 -0.222127 0.938515 208 226 236
1.56135 3.4794 0.816234 -0.275876 0.46587 0.840748 208 226 235
1.56525 3.4794 0.817472 0 0.480419 0.877039 209 226 234
1.56525 3.48166 0.816234 0.108599 0.480641 0.870167 209 226 235
1.56852 3.4794 0.816234 0.323904 0.468419 0.821991 209 226 234
1.57165 3.4794 0.814949 -0.0357892 0.120639 0.992051 209 226 234
1.57165 3.48464 0.816234 -0.379653 -0.217521 0.899193 209 226 234
1.57165 3.4858 0.816498 -0.359359 -0.205894 0.910202 209 226 234
1.57805 3.47565 0.816234 -0.317197 -0.226183 0.920993 208 225 233
1.57538 3.4794 0.816234 -0.317197 -0.226183 0.920993 208 225 233
1.57805 3.4794 0.817156 -0.317197 -0.226183 0.920993 208 225 233
1.58445 3.473 0.81321 0 0 0 208 225 233
1.47562 3.48836 0.809833 0.104182 -0.22416 0.968968 211 229 239
1.47288 3.4922 0.809833 -0.328063 0.0914162 0.940222 211 229 239
1.47562 3.4922 0.810861 0 0 1 211 229 239
1.47562 3.49441 0.809833 0.0984442 0.389857 0.915598 211 229 239
1.47562 3.4986 0.808049 -0.18201 -0.00061165 0.983296 211 229 239
1.4751 3.50501 0.809833 0 0 0 211 229 239
1.47562 3.50501 0.80962 -0.102472 -0.0555517 0.993184 211 229 239
1.47562 3.50587 0.809833 0.135481 -0.226294 0.964591 211 229 239
1.47297 3.51141 0.809833 -0.422226 -0.20241 0.883604 211 229 239
1.47562 3.51141 0.811086 0.233177 -0.215394 0.948279 211 229 239
1.47562 3.51781 0.812533 0.103402 -0.00421049 0.994631 211 229 239
1.47562 3.52274 0.809833 -0.241397 0.465938 0.851252 211 229 239
1.4735 3.52421 0.809833 0.642341 -0.413943 0.645019 211 229 239
1.47562 3.52421 0.809028 0 0 1 211 229 239
1.47562 3.52686 0.809833 -0.188889 -0.6628 0.72458 211 229 239
1.47562 3.53061 0.814885 -0.0931148 -0.293838 0.951309 211 229 239
1.47562 3.53702 0.812237 -0.447816 0.0586932 0.892197 211 229 239
1.47562 3.54342 0.814042 -0.420908 0.0219645 0.906837 211 229 239
1.47851 3.4922 0.809833 0.299675 0 0.954041 211 229 239
1.48203 3.4922 0.80885 0.0872843 -0.0689609 0.993794 211 229 239
1.48203 3.49688 0.809833 0.235206 -0.202377 0.950643 211 229 239
1.4808 3.4986 0.809833 -0.315401 -0.2149 0.924305 211 229 239
1.48203 3.4986 0.810256 -0.218482 -0.232581 0.947719 211 229 239
1.47624 3.50501 0.809833 -0.325939 0.00615026 0.945371 211 229 239
1.48203 3.50501 0.811827 0.0209598 0.0223124 0.999531 211 229 239
1.48203 3.50891 0.809833 0.00609616 0.453714 0.891127 211 229 239
1.47893 3.51141 0.809833 0.35833 -0.215055 0.908488 211 229 239
1.48203 3.51141 0.808561 0.000216944 -0.00352265 0.999994 211 229 239
1.48203 3.51658 0.809833 -0.149063 -0.23562 0.960346 211 229 239
1.48203 3.51781 0.810133 0.031955 -0.167836 0.985297 211 229 239
1.47732 3.52421 0.809833 -0.412864 0.260469 0.872754 211 229 239
1.48203 3.52421 0.812056 0.0233953 -0.248115 0.968448 211 229 239
1.48203 3.53061 0.813811 0.257309 -0.247234 0.934167 211 229 239
1.48203 3.53702 0.81545 -0.0591913 -0.148455 0.987146 211 229 239
1.48203 3.54048 0.816234 0.156116 -0.218057 0.963369 211 229 239
1.48062 3.54342 0.816234 -0.405824 -0.0935905 0.909146 211 229 239
1.48203 3.54342 0.8169 -1.41046e-17 0 1 211 229 239
1.48203 3.54463 0.816234 -0.0633848 0.477516 0.876334 211 229 239
1.48203 3.54982 0.813393 -0.288113 0.0754082 0.954623 211 229 239
1.47905 3.55622 0.816234 0 0 0 211 229 239
1.48203 3.55622 0.815338 -0.0853575 -0.0555328 0.994802 211 229 239
1.48203 3.56018 0.816234 0.223314 -0.209444 0.951979 211 229 239
1.48102 3.56262 0.816234 -0.454743 -0.187257 0.870715 211 229 239
1.48203 3.56262 0.816747 -0.00457313 -0.213014 0.977039 211 229 239
1.47838 3.56902 0.816234 -0.451221 0.121238 0.884138 211 229 239
1.48203 3.56902 0.818093 -0.077386 0.00669096 0.996979 211 229 239
1.48203 3.57223 0.816234 -0.404109 0.459153 0.791123 211 229 239
1.48203 3.57543 0.814378 -0.45841 0.121899 0.880341 211 229 239
1.48057 3.58183 0.816234 0.291009 -0.353536 0.889003 211 229 239
1.48203 3.58183 0.815757 -0.357758 -0.251101 0.899421 211 229 239
1.48203 3.58303 0.816234 -0.396534 -0.353735 0.847132 211 229 239
1.48426 3.4922 0.809833 -0.41986 0.026693 0.907196 211 229 239
1.48843 3.4922 0.81166 -0.0615365 0.0104125 0.998051 211 229 239
1.48843 3.49535 0.809833 -0.378466 0.464611 0.800563 211 229 239
1.48306 3.4986 0.809833 0.316646 -0.239173 0.917895 211 229 239
1.48843 3.4986 0.807945 -0.0370513 -0.0125278 0.999235 211 229 239
1.48813 3.50501 0.809833 0.308609 0.0308253 0.950689 211 229 239
1.48843 3.50501 0.809749 0.117026 -0.0823444 0.989709 211 229 239
1.48843 3.5054 0.809833 0.0972962 -0.226605 0.969115 211 229 239
1.48499 3.51141 0.809833 -0.383796 -0.219224 0.897018 211 229 239
1.48843 3.51141 0.811307 -0.0471578 -0.256177 0.965479 211 229 239
1.48843 3.51781 0.812878 -0.121219 -0.041318 0.991766 211 229 239
1.48843 3.52421 0.811132 -0.186945 -0.0226904 0.982108 210 228 238
1.48843 3.53061 0.811573 -0.0118998 -0.184332 0.982792 210 228 238
1.48843 3.53702 0.813256 -0.0840578 -0.25959 0.962054 211 229 239
1.48423 3.54342 0.816234 0.288818 7.62138e-18 0.957384 211 229 239
1.48843 3.54342 0.814969 0.0504441 -0.0458285 0.997675 211 229 239
1.48843 3.549 0.816234 0.242771 -0.214381 0.946099 211 229 239
1.48803 3.54982 0.816234 -0.415643 -0.23326 0.879108 211 229 239
1.48843 3.54982 0.81642 -0.31981 -0.255858 0.912282 211 229 239
1.48392 3.55622 0.816234 -0.415617 -0.00103461 0.909539 211 229 239
1.48843 3.55622 0.818212 0.0114811 0.00918529 0.999892 211 229 239
1.48843 3.55963 0.816234 0.0233659 0.502913 0.864021 211 229 239
1.48348 3.56262 0.816234 0.321452 -0.239588 0.916115 211 229 239
1.48843 3.56262 0.814497 -0.0164298 -0.0176372 0.999709 211 229 239
1.48843 3.56879 0.816234 -0.0974515 -0.273344 0.956967 211 229 239
1.48843 3.56902 0.816297 -0.0629379 -0.124906 0.99017 211 229 239
1.48566 3.57543 0.816234 -0.474429 0.15473 0.866588 211 229 239
1.48843 3.57543 0.817882 -0.0374582 -0.212717 0.976396 211 229 239
1.48281 3.58183 0.816234 -0.501285 -0.238719 0.831701 211 229 239
1.48843 3.58183 0.819914 -0.220695 -0.302295 0.927314 211 229 239
1.49483 3.49208 0.809833 -0.0938524 -0.273967 0.957149 211 229 239
1.49483 3.4922 0.809868 -0.0565503 -0.222192 0.973362 211 229 239
1.49212 3.4986 0.809833 -0.45063 0.132665 0.882798 211 229 239
1.49483 3.4986 0.811212 -0.0334917 -0.0565841 0.997836 211 229 239
1.48862 3.50501 0.809833 -0.419888 0.0267341 0.907182 211 229 239
1.49483 3.50501 0.81256 -0.14976 0.0673919 0.986423 211 229 239
1.49483 3.50971 0.809833 -0.367037 0.466956 0.80451 211 229 239
1.49202 3.51141 0.809833 0.34765 -0.277141 0.89573 211 229 239
1.49483 3.51141 0.808844 -0.000691707 -0.000330974 1 211 229 239
1.49483 3.5142 0.809833 -0.242122 -0.340601 0.908498 211 229 239
1.49483 3.51781 0.811209 -0.107363 -0.270345 0.956758 211 229 239
1.49483 3.52421 0.812892 -0.134676 -0.0506743 0.989593 211 229 239
1.49483 3.53061 0.814467 -0.114261 -0.232596 0.965838 211 229 239
1.49483 3.53598 0.816234 0.277017 -0.296492 0.913977 211 229 239
1.49426 3.53702 0.816234 -0.442907 -0.247184 0.86182 211 229 239
1.49483 3.53702 0.816526 -0.305111 -0.217137 0.927232 211 229 239
1.4911 3.54342 0.816234 -0.436657 0.0151263 0.899501 211 229 239
1.49483 3.54342 0.817996 0.0217036 0.0154457 0.999645 211 229 239
1.49483 3.54663 0.816234 0.0618631 0.481935 0.87402 211 229 239
1.48904 3.54982 0.816234 0.301831 -0.233746 0.924262 211 229 239
1.49483 3.54982 0.814491 -0.0374322 -0.023187 0.99903 211 229 239
1.49405 3.55622 0.816234 0.334538 0.020918 0.94215 211 229 239
1.49483 3.55622 0.815939 0.0611579 -0.0441771 0.99715 211 229 239
1.49483 3.55752 0.816234 -0.45818 -0.20089 0.86586 211 229 239
1.49238 3.56262 0.816234 -0.401221 -0.225275 0.887847 211 229 239
1.49483 3.56262 0.81739 -0.161496 -0.159663 0.973872 211 229 239
1.49483 3.56902 0.820033 -0.128714 0.0280305 0.991286 211 229 239
1.49483 3.57543 0.816626 -0.142672 -0.0112247 0.989706 211 229 239
1.49483 3.58183 0.818657 0.0673558 -0.301671 0.95103 212 230 240
1.50123 3.4922 0.812679 -0.0697473 -0.00613621 0.997546 211 229 239
1.50123 3.49711 0.809833 0.145722 0.496698 0.855603 211 229 239
1.49875 3.4986 0.809833 0.332689 -0.119453 0.935441 211 229 239
1.50123 3.4986 0.808963 -2.21548e-17 0 1 211 229 239
1.50123 3.50168 0.809833 -0.251223 -0.272349 0.928823 211 229 239
1.50123 3.50501 0.810841 -0.0574335 -0.163559 0.98486 211 229 239
1.49676 3.51141 0.809833 -0.458387 0.252797 0.852042 211 229 239
1.50123 3.51141 0.812288 -0.109219 -0.134996 0.984808 211 229 239
1.50123 3.51781 0.81392 -0.0144649 -0.237482 0.971284 211 229 239
1.50123 3.52421 0.815477 -0.171327 -0.00898591 0.985173 211 229 239
1.50123 3.53061 0.812674 -0.108019 0.0353002 0.993522 211 229 239
1.49566 3.53702 0.816234 0.347993 -0.211068 0.913428 211 229 239
1.50123 3.53702 0.814121 -0.0243475 -0.249887 0.967969 211 229 239
1.49948 3.54342 0.816234 0.360875 0.0310183 0.932098 211 229 239
1.50123 3.54342 0.815517 0.0620779 -0.0598485 0.996275 211 229 239
1.50123 3.54559 0.816234 0.018696 -0.288971 0.957155 211 229 239
1.49851 3.54982 0.816234 -0.409284 -0.232026 0.882412 211 229 239
1.50123 3.54982 0.817426 -0.0413298 -0.263145 0.963871 211 229 239
1.49545 3.55622 0.816234 -0.441475 -0.229332 0.867471 211 229 239
1.50123 3.55622 0.819466 -0.0902984 -0.0469952 0.994805 212 230 240
1.50123 3.56262 0.817196 -0.122325 0.0747929 0.989668 212 230 240
1.50123 3.56902 0.817585 0.0285147 -0.144176 0.989141 212 230 240
1.50123 3.57543 0.818207 0.088694 0.033046 0.995511 212 230 240
1.50123 3.58183 0.819809 -0.0112129 -0.262981 0.964736 212 230 240
1.50763 3.48937 0.809833 -0.231774 -0.214546 0.948815 211 229 239
1.50763 3.4922 0.810473 0.00467994 -0.13689 0.990575 211 229 239
1.50293 3.4986 0.809833 -0.439514 0.258273 0.860303 211 229 239
1.50763 3.4986 0.812234 -0.0103226 -0.157237 0.987507 211 229 239
1.50763 3.50501 0.813866 -0.0897832 -0.0589298 0.994216 211 229 239
1.50763 3.51141 0.812174 -0.219978 -0.00170783 0.975503 211 229 239
1.50763 3.51781 0.812307 -0.0834612 -0.1477 0.985504 211 229 239
1.50763 3.52421 0.813757 -0.044135 -0.108853 0.993078 211 229 239
1.50763 3.53061 0.814915 -0.0273288 -0.13278 0.990769 211 229 239
1.50763 3.53461 0.816234 0.156712 -0.321567 0.933829 211 229 239
1.50569 3.53702 0.816234 -0.409677 -0.252541 0.876577 211 229 239
1.50763 3.53702 0.817151 -0.0517497 -0.253587 0.965927 211 229 239
1.50263 3.54342 0.816234 -0.432865 -0.0140698 0.901349 211 229 239
1.50763 3.54342 0.818601 -0.115883 0.0414072 0.992399 211 229 239
1.50763 3.54944 0.816234 -0.387346 0.340549 0.856732 211 229 241
1.50696 3.54982 0.816234 0.200221 -0.223775 0.953853 211 229 241
1.50763 3.54982 0.816056 -0.0541901 -0.0347933 0.997924 211 229 241
1.50763 3.55048 0.816234 -0.204472 -0.193226 0.959612 211 229 241
1.50763 3.55622 0.817358 0.00378112 -0.205719 0.978604 211 229 241
1.50763 3.56262 0.818326 0.122462 0.00287393 0.992469 211 229 241
1.50763 3.56902 0.819669 -0.00543336 0.0480172 0.998832 212 230 240
1.50763 3.57495 0.816234 0.23175 0.48858 0.841179 212 230 240
1.50684 3.57543 0.816234 0.329006 -0.144412 0.933221 212 230 240
1.50763 3.57543 0.815934 0 0 1 212 230 240
1.50763 3.57675 0.816234 0.221148 -0.205403 0.953364 212 230 240
1.50763 3.58183 0.8173 0.340909 -0.211099 0.916088 212 230 240
1.51403 3.4922 0.813499 -0.151878 0.0290554 0.987972 211 229 239
1.51403 3.4986 0.810546 -0.22773 0.0160786 0.973591 211 229 239
1.51403 3.50501 0.811577 -0.0156167 -0.234636 0.971958 211 229 239
1.51403 3.51141 0.813594 -0.160281 -0.0872564 0.983207 211 229 239
1.51403 3.51781 0.815333 -0.110159 -0.208584 0.971781 211 229 239
1.51403 3.52179 0.816234 0.175158 -0.217425 0.960232 211 229 239
1.51287 3.52421 0.816234 -0.424847 -0.109478 0.898621 211 229 239
1.51403 3.52421 0.816783 0 0 1 211 229 239
1.51403 3.52521 0.816234 -0.0760243 0.45618 0.886634 211 229 239
1.51403 3.53061 0.813489 -0.132691 -0.00848473 0.991121 211 229 239
1.51005 3.53702 0.816234 0.325161 -0.327284 0.887218 211 229 239
1.51403 3.53702 0.814834 0.0980427 -0.267341 0.958601 211 229 239
1.51403 3.54097 0.816234 -0.155973 -0.333696 0.929688 211 229 240
1.51403 3.54342 0.817167 -0.0162081 -0.185729 0.982467 211 229 241
1.50826 3.54982 0.816234 -0.239045 0.308388 0.920736 211 229 241
1.51403 3.54982 0.817742 -0.0429339 0.0193817 0.99889 211 229 241
1.51403 3.55622 0.819313 0.163145 0.0420161 0.985707 211 229 241
1.51403 3.5614 0.816234 0.370867 0.466874 0.802799 211 229 241
1.51257 3.56262 0.816234 0.394206 -0.0938088 0.914222 211 229 241
1.51403 3.56262 0.815566 0.00273946 -0.00471116 0.999985 211 229 241
1.51403 3.56557 0.816234 -0.180463 -0.22159 0.958296 211 229 241
1.51403 3.56902 0.817016 0.14715 -0.212664 0.965982 211 229 241
1.50839 3.57543 0.816234 -0.305713 0.465842 0.83038 212 230 240
1.51403 3.57543 0.818306 0.0474893 0.162277 0.985602 211 229 241
1.52044 3.48648 0.809833 -0.35542 -0.26012 0.897783 211 229 239
1.52044 3.4922 0.811447 -0.0551672 -0.277161 0.959239 210 228 238
1.52044 3.4986 0.813518 -0.23018 -0.0495809 0.971884 211 229 239
1.52044 3.50501 0.814967 -0.145737 -0.228681 0.962531 211 229 239
1.52044 3.5106 0.816234 0.227029 -0.213363 0.950229 211 229 239
1.52005 3.51141 0.816234 -0.397646 -0.168407 0.901952 211 229 239
1.52044 3.51141 0.816416 0 0 1 211 229 239
1.52044 3.51179 0.816234 -0.318831 0.428069 0.845638 211 229 239
1.52044 3.51781 0.813164 -0.0554583 -0.00450056 0.998451 211 229 239
1.51585 3.52421 0.816234 0.288377 0 0.957517 211 229 239
1.52044 3.52421 0.814854 -0.0284186 -0.0999013 0.994591 211 229 239
1.52044 3.52875 0.816234 0.254891 -0.274018 0.927332 211 229 239
1.51941 3.53061 0.816234 -0.447903 -0.22152 0.866205 211 229 239
1.52044 3.53061 0.816799 -0.250997 -0.192096 0.948736 211 229 239
1.51677 3.53702 0.816234 -0.438177 -0.206507 0.874846 211 229 239
1.52044 3.53702 0.817977 0.02757 -0.189823 0.981431 211 229 240
1.52044 3.54342 0.81899 0.0416621 0.0589458 0.997391 211 229 240
1.52044 3.54816 0.816234 0.142494 0.50345 0.852193 211 229 240
1.5177 3.54982 0.816234 0.395553 -0.0937549 0.913645 211 229 241
1.52044 3.54982 0.815274 -0.010917 0.00495155 0.999928 211 229 241
1.52026 3.55622 0.816234 0.4377 0.138658 0.888365 211 229 241
1.52044 3.55622 0.816159 0.1204 -0.0257812 0.992391 211 229 241
1.52044 3.55658 0.816234 -0.055783 -0.223289 0.973155 211 229 241
1.51613 3.56262 0.816234 -0.309539 -0.220166 0.925047 211 229 241
1.52044 3.56262 0.817716 -0.319465 -0.22234 0.921144 211 229 241
1.52044 3.56902 0.81929 -0.325999 -0.225687 0.918036 211 229 241
1.52684 3.4922 0.814463 -0.0531902 -0.300359 0.952342 210 228 238
1.52684 3.49758 0.816234 0.272808 -0.305969 0.912117 210 228 238
1.52618 3.4986 0.816234 -0.418118 -0.225982 0.879835 210 228 238
1.52684 3.4986 0.816522 -1.03556e-17 0 1 210 228 238
1.52684 3.4991 0.816234 -0.301233 0.48026 0.823778 210 228 238
1.52684 3.50501 0.812808 -0.0675428 0.00541161 0.997702 210 228 238
1.52104 3.51141 0.816234 0.252486 0.37926 0.890176 211 229 239
1.52684 3.51141 0.814613 -0.0684168 -0.0685532 0.995299 211 229 239
1.52684 3.51781 0.815958 -0.130388 -0.221353 0.966438 211 229 239
1.52684 3.51859 0.816234 0.0709188 -0.336059 0.939167 211 229 239
1.52294 3.52421 0.816234 -0.458502 0.121394 0.880363 211 229 239
1.52684 3.52421 0.818224 -1.13755e-17 0 1 211 229 239
1.52684 3.52726 0.816234 0.063657 0.534132 0.843001 211 229 239
1.52167 3.53061 0.816234 0.369393 -0.18515 0.910641 211 229 239
1.52684 3.53061 0.814192 -0.0449822 -0.0052761 0.998974 211 229 239
1.52485 3.53702 0.816234 0.369848 -0.152376 0.916512 211 229 239
1.52684 3.53702 0.815393 0.147247 -0.171466 0.974124 211 229 239
1.52684 3.5431 0.816234 -0.175389 -0.134711 0.975239 211 229 241
1.52684 3.54342 0.816278 0.0651659 -0.174362 0.982523 211 229 241
1.52305 3.54982 0.816234 -0.337208 0.202399 0.919416 211 229 241
1.52684 3.54982 0.817622 -0.100345 0.0239924 0.994663 211 229 241
1.52061 3.55622 0.816234 -0.376239 -0.074383 0.923532 211 229 241
1.52684 3.55622 0.81897 -0.394743 -0.189299 0.89908 211 229 241
1.52684 3.56093 0.816234 -0.354917 0.469245 0.808606 211 229 241
1.52405 3.56262 0.816234 0.324917 -0.194044 0.925622 211 229 241
1.52684 3.56262 0.815254 0.0526219 0.0880196 0.994728 211 229 241
1.53324 3.4922 0.812018 -0.0192607 -0.212267 0.977022 209 227 237
1.52787 3.4986 0.816234 0.322116 0.396759 0.859549 210 228 238
1.53324 3.4986 0.814123 -0.0500811 -0.111845 0.992463 210 228 238
1.53324 3.50501 0.81605 -0.123773 -0.257961 0.958194 210 228 238
1.53324 3.50556 0.816234 0.113112 -0.290822 0.950067 210 228 238
1.53001 3.51141 0.816234 -0.469687 -0.0168393 0.882672 211 229 239
1.53324 3.51141 0.818011 -1.30969e-17 0 1 210 228 238
1.53324 3.51465 0.816234 -0.0325692 0.47693 0.878338 211 229 239
1.53324 3.51781 0.814503 -0.0488627 -0.0406854 0.997977 211 229 239
1.53153 3.52421 0.816234 0.396773 2.80248e-17 0.917917 211 229 239
1.53324 3.52421 0.815457 0.0289761 -0.0438919 0.998616 211 229 239
1.53324 3.52765 0.816234 -0.350217 -0.189972 0.917201 211 229 239
1.53182 3.53061 0.816234 -0.376222 -0.17502 0.909849 211 229 239
1.53324 3.53061 0.816815 -0.330973 -0.153561 0.931062 211 229 239
1.52913 3.53702 0.816234 -0.352702 -0.145333 0.924381 211 229 240
1.53324 3.53702 0.817744 -0.200821 0.00960685 0.979581 211 229 241
1.53324 3.54342 0.818815 -0.188931 0.00927619 0.981947 211 229 241
1.53324 3.54813 0.816234 0.303098 0.453871 0.837933 211 229 241
1.53079 3.54982 0.816234 0.305095 0.442009 0.843531 211 229 241
1.53324 3.54982 0.815307 0.314778 0.456037 0.832433 211 229 241
1.53733 3.4986 0.816234 -0.427039 -0.103175 0.898328 209 227 237
1.53713 3.51141 0.816234 0.415347 -1.32473e-17 0.909663 210 228 238
1.53868 3.51781 0.816234 -0.295927 -0.186033 0.93692 210 228 238
1.5352 3.52421 0.816234 -0.326621 -0.174916 0.928829 211 229 239
1.53964 3.53061 0.819006 -0.142908 0.0398676 0.988933 210 228 239
1.53964 3.53517 0.816234 0.332262 0.497568 0.801266 211 229 240
1.5368 3.53702 0.816234 0.385838 0.139339 0.911983 211 229 241
1.53964 3.53702 0.815032 0.389406 0 0.921066 211 229 240
1.53964 3.54274 0.816234 0.382317 -0.189954 0.904296 211 229 241
3 2 4 3
3 2 7 6
3 6 4 2
3 10 13 12
3 18 17 16
3 16 17 14
3 16 14 15
3 16 20 18
3 20 16 15
3 20 15 21
3 21 15 19
3 22 23 19
3 23 21 19
3 24 25 22
3 25 23 22
3 27 25 26
3 27 28 25
3 28 29 25
3 26 30 27
3 32 33 31
3 32 29 33
3 29 28 33
3 32 31 34
3 31 37 35
3 31 33 37
3 33 36 37
3 31 35 34
3 39 36 38
3 39 40 36
3 40 37 36
3 38 41 39
3 44 45 43
3 44 40 45
3 42 45 39
3 39 45 40
3 42 39 41
3 43 46 44
3 48 43 45
3 47 43 48
3 43 47 49
3 46 43 49
3 48 50 47
3 51 28 27
3 51 52 28
3 52 53 28
3 51 27 30
3 55 53 54
3 55 33 53
3 33 28 53
3 54 56 55
3 57 33 55
3 57 58 33
3 58 36 33
3 55 56 57
3 38 60 59
3 38 36 60
3 36 58 60
3 38 59 41
3 59 45 42
3 59 60 45
3 60 61 45
3 59 42 41
3 63 52 62
3 53 52 63
3 64 65 63
3 62 64 63
3 54 68 67
3 54 53 68
3 66 68 63
3 63 68 53
3 66 63 65
3 67 56 54
3 70 68 69
3 70 58 68
3 67 68 57
3 57 68 58
3 67 57 56
3 69 71 70
3 72 58 70
3 60 58 72
3 76 73 75
3 74 73 76
3 73 74 65
3 64 73 65
3 78 76 77
3 78 68 76
3 74 76 66
3 66 76 68
3 74 66 65
3 77 79 78
3 81 75 80
3 76 75 81
3 26 82 83
3 26 25 82
3 25 24 82
3 83 30 26
3 83 52 51
3 83 82 52
3 82 84 52
3 83 51 30
3 62 85 86
3 62 52 85
3 52 84 85
3 86 64 62
3 86 75 73
3 86 85 75
3 89 75 87
3 87 75 85
3 89 87 88
3 73 64 86
3 80 91 92
3 80 75 91
3 90 91 89
3 89 91 75
3 90 89 88
3 92 93 80
3 94 96 95
3 99 0 98
3 98 100 99
3 101 102 99
3 101 99 100
3 106 104 105
3 105 107 106
3 111 110 109
3 111 112 110
3 110 112 113
3 98 117 116
3 98 0 117
3 0 1 117
3 98 116 100
3 119 117 118
3 119 102 117
3 116 117 101
3 101 117 102
3 116 101 100
3 118 120 119
3 121 102 119
3 104 102 121
3 120 122 121
3 119 120 121
3 105 125 124
3 105 104 125
3 123 125 121
3 121 125 104
3 123 121 122
3 124 107 105
3 125 126 124
3 124 126 127
3 124 127 107
3 107 127 108
3 109 128 111
3 128 109 108
3 128 108 129
3 129 108 127
3 128 112 111
3 112 128 129
3 112 129 113
3 113 129 130
3 130 131 113
3 131 114 113
3 133 131 132
3 133 115 131
3 115 114 131
3 132 134 133
3 135 115 133
3 135 136 115
3 133 134 135
3 140 138 139
3 139 141 140
3 141 143 142
3 140 141 142
3 144 145 142
3 144 142 143
3 147 148 146
3 149 1 3
3 117 1 149
3 4 150 149
3 3 4 149
3 118 153 152
3 118 117 153
3 151 153 149
3 149 153 117
3 151 149 150
3 152 120 118
3 155 152 153
3 154 152 155
3 152 154 122
3 120 152 122
3 157 155 156
3 157 125 155
3 154 155 123
3 123 155 125
3 154 123 122
3 156 158 157
3 157 126 125
3 126 157 158
3 126 158 127
3 127 158 159
3 159 160 127
3 160 129 127
3 160 161 129
3 161 130 129
3 161 162 130
3 162 131 130
3 132 164 163
3 132 131 164
3 131 162 164
3 132 163 134
3 166 164 165
3 166 136 164
3 163 164 135
3 135 164 136
3 163 135 134
3 165 167 166
3 168 136 166
3 138 136 168
3 167 169 168
3 166 167 168
3 139 172 171
3 139 138 172
3 170 172 168
3 168 172 138
3 170 168 169
3 171 141 139
3 172 173 171
3 171 173 174
3 171 174 141
3 141 174 143
3 144 175 145
3 175 144 143
3 175 143 176
3 176 143 174
3 177 145 175
3 147 145 177
3 176 178 177
3 175 176 177
3 177 148 147
3 148 177 178
3 7 179 6
3 6 179 180
3 6 180 4
3 4 180 150
3 151 181 153
3 181 151 150
3 181 150 182
3 182 150 180
3 183 153 181
3 155 153 183
3 182 184 183
3 181 182 183
3 156 187 186
3 156 155 187
3 185 187 183
3 183 187 155
3 185 183 184
3 186 158 156
3 187 188 186
3 186 188 189
3 186 189 158
3 158 189 159
3 189 190 159
3 190 160 159
3 190 191 160
3 191 161 160
3 193 191 192
3 193 162 191
3 162 161 191
3 192 194 193
3 195 162 193
3 164 162 195
3 194 196 195
3 193 194 195
3 165 199 198
3 165 164 199
3 197 199 195
3 195 199 164
3 197 195 196
3 198 167 165
3 201 198 199
3 200 198 201
3 198 200 169
3 167 198 169
3 203 201 202
3 203 172 201
3 200 201 170
3 170 201 172
3 200 170 169
3 202 204 203
3 203 173 172
3 173 203 204
3 173 204 174
3 174 204 205
3 205 206 174
3 206 176 174
3 206 207 176
3 207 178 176
3 8 179 7
3 179 8 9
3 179 9 180
3 180 9 208
3 211 210 209
3 209 210 182
3 209 182 208
3 208 182 180
3 211 212 210
3 210 212 213
3 210 213 182
3 182 213 184
3 185 214 187
3 214 185 184
3 214 184 215
3 215 184 213
3 214 188 187
3 188 214 215
3 188 215 189
3 189 215 216
3 216 217 189
3 217 190 189
3 217 218 190
3 218 191 190
3 192 220 219
3 192 191 220
3 191 218 220
3 192 219 194
3 222 219 220
3 221 219 222
3 219 221 196
3 194 219 196
3 224 222 223
3 224 199 222
3 221 222 197
3 197 222 199
3 221 197 196
3 223 225 224
3 226 199 224
3 201 199 226
3 225 227 226
3 224 225 226
3 226 202 201
3 202 226 227
3 202 227 204
3 204 227 228
3 228 229 204
3 229 205 204
3 229 230 205
3 230 206 205
3 230 231 206
3 231 207 206
3 12 232 11
3 11 232 233
3 11 233 9
3 9 233 208
3 209 234 211
3 234 209 208
3 234 208 235
3 235 208 233
3 234 212 211
3 212 234 235
3 212 235 213
3 213 235 236
3 236 237 213
3 237 215 213
3 237 238 215
3 238 216 215
3 238 239 216
3 239 217 216
3 239 240 217
3 240 218 217
3 242 240 241
3 242 220 240
3 220 218 240
3 241 243 242
3 244 220 242
3 222 220 244
3 243 245 244
3 242 243 244
3 223 248 247
3 223 222 248
3 246 248 244
3 244 248 222
3 246 244 245
3 247 225 223
3 248 249 247
3 247 249 250
3 247 250 225
3 225 250 227
3 250 251 227
3 251 228 227
3 251 252 228
3 252 229 228
3 255 254 253
3 253 254 230
3 253 230 252
3 252 230 229
3 255 256 254
3 254 256 257
3 254 257 230
3 230 257 231
3 13 232 12
3 232 13 14
3 232 14 233
3 233 14 258
3 258 259 233
3 259 235 233
3 259 260 235
3 260 236 235
3 260 261 236
3 261 237 236
3 261 262 237
3 262 238 237
3 264 262 263
3 264 239 262
3 239 238 262
3 263 265 264
3 266 239 264
3 266 267 239
3 267 240 239
3 264 265 266
3 241 269 268
3 241 240 269
3 240 267 269
3 241 268 243
3 269 270 268
3 268 270 271
3 268 271 243
3 243 271 245
3 246 272 248
3 272 246 245
3 272 245 273
3 273 245 271
3 272 249 248
3 249 272 273
3 249 273 250
3 250 273 274
3 277 276 275
3 275 276 251
3 275 251 274
3 274 251 250
3 277 278 276
3 276 278 279
3 276 279 251
3 251 279 252
3 253 280 255
3 280 253 252
3 280 252 281
3 281 252 279
3 280 256 255
3 18 282 17
3 17 282 283
3 17 283 14
3 14 283 258
3 283 284 258
3 284 259 258
3 284 285 259
3 285 260 259
3 287 285 286
3 287 261 285
3 261 260 285
3 286 288 287
3 289 261 287
3 289 290 261
3 290 262 261
3 287 288 289
3 263 292 291
3 263 262 292
3 262 290 292
3 263 291 265
3 294 292 293
3 294 267 292
3 291 292 266
3 266 292 267
3 291 266 265
3 293 295 294
3 296 267 294
3 269 267 296
3 295 297 296
3 294 295 296
3 296 270 269
3 270 296 297
3 270 297 271
3 271 297 298
3 301 300 299
3 299 300 273
3 299 273 298
3 298 273 271
3 303 300 301
3 302 300 303
3 300 302 274
3 273 300 274
3 305 303 304
3 305 277 303
3 302 303 275
3 275 303 277
3 302 275 274
3 304 306 305
3 305 278 277
3 278 305 306
3 278 306 279
3 279 306 307
3 20 282 18
3 282 20 21
3 282 21 283
3 283 21 308
3 310 308 309
3 310 284 308
3 284 283 308
3 309 311 310
3 312 284 310
3 312 313 284
3 313 285 284
3 310 311 312
3 286 315 314
3 286 285 315
3 285 313 315
3 286 314 288
3 314 290 289
3 314 315 290
3 315 316 290
3 314 289 288
3 318 316 317
3 318 292 316
3 292 290 316
3 317 319 318
3 293 322 321
3 293 292 322
3 320 322 318
3 318 322 292
3 320 318 319
3 321 295 293
3 324 321 322
3 323 321 324
3 321 323 297
3 295 321 297
3 324 325 323
3 323 325 326
3 323 326 297
3 297 326 298
3 299 327 301
3 327 299 298
3 327 298 328
3 328 298 326
3 329 301 327
3 303 301 329
3 328 330 329
3 327 328 329
3 304 333 332
3 304 303 333
3 331 333 329
3 329 333 303
3 23 334 21
3 334 308 21
3 309 336 335
3 309 308 336
3 308 334 336
3 309 335 311
3 335 313 312
3 335 336 313
3 336 337 313
3 335 312 311
3 339 337 338
3 339 315 337
3 315 313 337
3 338 340 339
3 341 315 339
3 341 342 315
3 342 316 315
3 339 340 341
3 317 344 343
3 317 316 344
3 316 342 344
3 317 343 319
3 346 344 345
3 346 322 344
3 343 344 320
3 320 344 322
3 343 320 319
3 345 347 346
3 348 322 346
3 324 322 348
3 347 349 348
3 346 347 348
3 348 325 324
3 325 348 349
3 325 349 326
3 326 349 350
3 353 352 351
3 351 352 328
3 351 328 350
3 350 328 326
3 25 29 23
3 29 334 23
3 354 29 32
3 354 336 29
3 336 334 29
3 32 34 354
3 35 336 354
3 35 37 336
3 37 337 336
3 354 34 35
3 338 40 355
3 338 337 40
3 337 37 40
3 338 355 340
3 356 40 44
3 356 342 40
3 355 40 341
3 341 40 342
3 355 341 340
3 44 46 356
3 357 342 356
3 344 342 357
3 46 49 357
3 356 46 357
3 357 345 344
3 345 357 49
3 345 49 347
3 347 49 358
3 361 360 359
3 359 360 349
3 359 349 358
3 358 349 347
3 361 362 360
